<svg width="27" height="18" viewBox="0 0 27 18" fill="none" xmlns="http://www.w3.org/2000/svg">
<path d="M13.0086 0C7.09562 0 2.0459 3.732 0 9C2.0459 14.268 7.09562 18 13.0086 18C18.9217 18 23.9714 14.268 26.0173 9C23.9714 3.732 18.9217 0 13.0086 0ZM13.0086 15C9.74465 15 7.09562 12.312 7.09562 9C7.09562 5.688 9.74465 3 13.0086 3C16.2726 3 18.9217 5.688 18.9217 9C18.9217 12.312 16.2726 15 13.0086 15ZM13.0086 5.4C11.0455 5.4 9.46083 7.008 9.46083 9C9.46083 10.992 11.0455 12.6 13.0086 12.6C14.9718 12.6 16.5565 10.992 16.5565 9C16.5565 7.008 14.9718 5.4 13.0086 5.4Z" fill="#484545"/>
</svg>
