<svg width="177" height="77" viewBox="0 0 177 77" fill="none" xmlns="http://www.w3.org/2000/svg">
<path d="M22.8638 39L36.8353 14H37.1719L51.1434 39H44.0735L35.152 21.4183L39.5706 19.0654L28.8816 39H22.8638ZM32.4166 30.3072H41.7169L43.8631 34.2941H30.5228L32.4166 30.3072Z" fill="#09A9A9"/>
<path d="M52.2747 39V14H52.3135L68.1829 32.9295L65.7772 32.4726L81.6079 14H81.6855V39H76.0593V24.6723L76.4086 27.1201L66.7472 38.6736H66.6696L56.7367 27.1201L57.7067 24.8681V39H52.2747Z" fill="#09A9A9"/>
<path d="M87.3413 15H94.1284V39H87.3413V15Z" fill="#09A9A9"/>
<path d="M39.8315 66L52.1265 40H52.4227L64.7176 66H58.4961L50.6451 47.7151L54.5336 45.268L45.1272 66H39.8315ZM48.238 56.9597H56.4223L58.311 61.1061H46.5715L48.238 56.9597Z" fill="#F9813D"/>
<path d="M68.1111 41H74.8982V66H68.1111V41Z" fill="#F9813D"/>
<path d="M95.3304 47.083C94.2147 46.5705 93.0725 46.1471 91.9036 45.8129C90.7614 45.4787 89.6855 45.3115 88.6761 45.3115C87.4276 45.3115 86.4447 45.5232 85.7275 45.9466C85.0102 46.3699 84.6516 47.005 84.6516 47.8517C84.6516 48.431 84.9172 48.9546 85.4485 49.4226C86.0064 49.8682 86.7103 50.2693 87.5604 50.6258C88.437 50.9823 89.3402 51.3054 90.27 51.595C91.12 51.8624 91.9568 52.1855 92.7803 52.5643C93.6303 52.9208 94.3874 53.3776 95.0515 53.9346C95.7156 54.4694 96.2469 55.149 96.6454 55.9734C97.0438 56.7756 97.2431 57.7671 97.2431 58.9481C97.2431 60.1958 96.8579 61.3545 96.0875 62.424C95.3172 63.4936 94.1882 64.3626 92.7006 65.031C91.213 65.6769 89.38 66 87.2018 66C86.0861 66 84.9438 65.9109 83.775 65.7326C82.6329 65.5324 81.5039 65.2427 80.3882 64.8639C79.2725 64.4628 78.1966 63.9615 77.1606 63.3599L79.7108 59.5831C80.4015 60.0065 81.1453 60.3852 81.9422 60.7195C82.7657 61.0314 83.589 61.2765 84.4125 61.4548C85.236 61.633 85.9931 61.7222 86.6838 61.7222C87.3744 61.7222 88.0651 61.6442 88.7558 61.4882C89.473 61.3099 90.0574 61.0203 90.509 60.6192C90.9872 60.2181 91.2263 59.6611 91.2263 58.9481C91.2263 58.4579 91.027 58.0122 90.6286 57.6111C90.2567 57.2101 89.7387 56.8424 89.0746 56.5082C88.437 56.174 87.7331 55.8843 86.9627 55.6392C86.0595 55.3495 85.1298 55.0153 84.1734 54.6365C83.2173 54.2577 82.3141 53.8009 81.4641 53.2662C80.6406 52.7091 79.9632 52.0295 79.4319 51.2274C78.9272 50.403 78.6748 49.4003 78.6748 48.2193C78.6748 46.7933 79.0467 45.5566 79.7905 44.5094C80.5609 43.4622 81.6367 42.6377 83.0181 42.0361C84.3992 41.4122 85.9931 41.0668 87.7995 41C90.1637 41 92.0763 41.234 93.5374 41.7019C95.025 42.1698 96.3532 42.7268 97.522 43.373L95.3304 47.083Z" fill="#F9813D"/>
<path d="M136.639 11.0389C134.458 11.4757 132.751 13.0108 131.926 15.2816C131.541 16.3416 131.372 17.6571 131.499 18.6149C131.746 20.5076 132.799 21.9916 134.361 22.6583C135.246 23.0364 136.122 23.1002 136.946 22.8524C137.524 22.6787 138.303 22.2905 138.812 21.9227C140.163 20.9495 141.126 19.4501 141.487 17.7592C141.611 17.1794 141.641 16.8856 141.638 16.2394C141.638 15.0032 141.433 14.1014 140.979 13.302C140.287 12.0861 139.192 11.2892 137.888 11.0517C137.53 10.9878 136.934 10.9827 136.639 11.0389Z" fill="white"/>
<path d="M124.541 11.0355C123.465 11.2159 122.452 12.0299 121.848 13.1969C121.519 13.8332 121.363 14.4438 121.294 15.3789C121.261 15.7885 121.278 16.4455 121.326 16.8576C121.602 19.1968 122.739 21.1675 124.453 22.2701C124.796 22.4916 125.364 22.7622 125.75 22.8858C126.023 22.9734 126.093 22.9837 126.396 22.9966C126.799 23.0121 127.086 22.976 127.436 22.8678C127.981 22.7003 128.426 22.4376 128.844 22.0357C129.673 21.2397 130.188 20.0392 130.309 18.6275C130.357 18.0452 130.303 17.1797 130.172 16.5021C129.646 13.7534 128.003 11.7182 125.825 11.1154C125.391 10.9969 124.945 10.9686 124.541 11.0355Z" fill="white"/>
<path d="M143.528 21.0241C141.722 21.2575 140.151 22.2357 139.17 23.7401C138.72 24.4339 138.493 24.9983 138.318 25.8767C138.256 26.1907 138.245 26.3095 138.245 26.6703C138.245 27.1116 138.277 27.3301 138.393 27.6866C138.703 28.6435 139.435 29.4222 140.345 29.7681C140.842 29.9569 141.296 30.0269 141.806 29.9909C143.045 29.906 144.149 29.4668 145.132 28.6689C146.215 27.7884 146.96 26.5705 147.203 25.2911C147.265 24.9728 147.309 24.3447 147.29 24.088C147.19 22.7682 146.288 21.6077 145.033 21.1833C144.547 21.0199 144.012 20.9626 143.528 21.0241Z" fill="white"/>
<path d="M118.172 21.0325C117.584 21.1896 117.09 21.8439 116.907 22.709C116.842 23.0146 116.788 23.4515 116.765 23.8497C116.682 25.2938 117 26.9251 117.6 28.1217C118.049 29.0148 118.627 29.6325 119.274 29.9101C119.818 30.1426 120.307 29.9231 120.722 29.2623C121.092 28.6727 121.277 27.8118 121.277 26.6776C121.277 26.2364 121.264 25.9954 121.215 25.5864C121.05 24.1832 120.55 22.8403 119.866 21.9601C119.551 21.5554 119.127 21.1831 118.859 21.0777C118.649 20.9937 118.382 20.9765 118.172 21.0325Z" fill="white"/>
<path d="M131.534 26.032C130.604 26.1243 129.685 26.3443 128.779 26.6969C127.396 27.2388 126.06 28.1404 125.197 29.1202C123.335 31.2357 122.042 33.5265 121.516 35.6397C121.483 35.7698 121.427 35.9662 121.392 36.0775C121.214 36.6525 121.243 37.3057 121.475 37.876C121.849 38.7941 122.659 39.5065 123.66 39.8046C124.259 39.9821 125.154 39.9798 126.151 39.7952C126.8 39.6769 127.286 39.5396 128.664 39.0876C130.583 38.4557 131.114 38.3351 132.404 38.2285C132.981 38.1812 133.086 38.1789 133.484 38.2049C134.501 38.2688 135.306 38.4652 136.85 39.0237C138.218 39.5183 138.982 39.7857 139.174 39.833C141.097 40.3158 143.008 39.7218 143.662 38.4368C143.948 37.8713 143.98 36.9507 143.74 36.0775C143.505 35.2279 142.808 33.8483 142.139 32.9183C140.256 30.2916 138.912 28.8314 137.358 27.7192C135.896 26.6756 134.67 26.181 133.16 26.032C132.736 25.9893 131.967 25.9893 131.534 26.032Z" fill="white"/>
<path d="M0.5 17C0.5 7.61116 8.11116 0 17.5 0H159.5C168.889 0 176.5 7.61116 176.5 17V60C176.5 69.3888 168.889 77 159.5 77H17.5C8.11116 77 0.5 69.3888 0.5 60V17Z" fill="#F9F9F9"/>
<path d="M35 59.3291V39.8261H35.0253L44.4404 53.3522L54.0951 39.8261H54.1456V59.3291H50.4832V50.3871L44.4213 59.0745H44.3708L38.5361 50.9415V59.3291H35Z" fill="#F9813D"/>
<path d="M56.8544 59.3291L65.24 39.8515H65.4421L73.8278 59.3291H69.5844L65.1664 47.9507L60.4663 59.3291H56.8544ZM63.2639 52.5565H66.9548L68.1609 55.6628H61.9808L63.2639 52.5565Z" fill="#F9813D"/>
<path d="M76.5377 40.5899H80.2001V59.3291H76.5377V40.5899Z" fill="#F9813D"/>
<path d="M94.9246 45.1219C94.2174 44.7315 93.4933 44.409 92.7524 44.1544C92.0284 43.8998 91.3464 43.7725 90.7065 43.7725C89.9151 43.7725 89.2921 43.9338 88.8374 44.2563C88.3828 44.5788 88.1554 45.0625 88.1554 45.7075C88.1554 46.1489 88.3238 46.5478 88.6606 46.9042C89.0142 47.2437 89.4604 47.5492 89.9993 47.8208C90.555 48.0924 91.1275 48.3385 91.7168 48.5592C92.2557 48.7629 92.7861 49.009 93.3081 49.2975C93.8469 49.5691 94.3268 49.9171 94.7478 50.3414C95.1688 50.7488 95.5056 51.2665 95.7581 51.8945C96.0107 52.5056 96.137 53.2609 96.137 54.1606C96.137 55.1111 95.8928 55.9937 95.4045 56.8085C94.9162 57.6232 94.2005 58.2852 93.2576 58.7944C92.3146 59.2867 91.1527 59.5328 89.772 59.5328C89.0647 59.5328 88.3407 59.4649 87.5998 59.3291C86.8757 59.1763 86.1601 58.9557 85.4528 58.6671C84.7456 58.3616 84.0636 57.9797 83.4069 57.5214L85.0234 54.6443C85.4612 54.9668 85.9327 55.2554 86.4379 55.51C86.9599 55.7476 87.4819 55.9343 88.0039 56.0701C88.5259 56.2059 89.0058 56.2738 89.4436 56.2738C89.8814 56.2738 90.3192 56.2144 90.757 56.0956C91.2117 55.9598 91.5821 55.7391 91.8684 55.4336C92.1715 55.1281 92.323 54.7037 92.323 54.1606C92.323 53.7871 92.1967 53.4477 91.9442 53.1421C91.7084 52.8366 91.3801 52.5565 90.9591 52.3019C90.555 52.0473 90.1087 51.8266 89.6204 51.6399C89.0479 51.4193 88.4585 51.1647 87.8523 50.8761C87.2462 50.5876 86.6736 50.2396 86.1348 49.8322C85.6128 49.4079 85.1834 48.8902 84.8466 48.2791C84.5267 47.6511 84.3667 46.8872 84.3667 45.9876C84.3667 44.9013 84.6025 43.9592 85.074 43.1615C85.5623 42.3637 86.2442 41.7357 87.1199 41.2774C87.9955 40.8021 89.0058 40.539 90.1508 40.4881C91.6495 40.4881 92.8619 40.6663 93.788 41.0227C94.731 41.3792 95.5729 41.8035 96.3138 42.2958L94.9246 45.1219Z" fill="#F9813D"/>
<path d="M42.7004 37.0509L51.0861 17.5733H51.2882L59.6739 37.0509H55.4305L51.0594 25.5589L46.3124 37.0509H42.7004ZM49.11 30.2783H52.8545L54.036 33.3845H47.8268L49.11 30.2783Z" fill="#91E0E0"/>
<path d="M62.3838 37.0509V17.5478H62.4091L71.8571 31.0535L81.4789 17.5478H81.5294V37.0509H77.867V27.7831L71.8051 36.7962H71.7545L65.9199 28.7282V37.0509H62.3838Z" fill="#91E0E0"/>
<path d="M86.3346 18.3117H89.997V37.0509H86.3346V18.3117Z" fill="#91E0E0"/>
<path d="M136.264 64.2261C136.264 66.8627 128.843 69 119.688 69C110.534 69 103.113 66.8627 103.113 64.2261C103.113 61.5895 110.534 59.4522 119.688 59.4522C128.843 59.4522 136.264 61.5895 136.264 64.2261Z" fill="#D9D9D9"/>
<path d="M119.688 8C107.906 8 98.377 17.0484 98.377 28.2361C98.377 43.4132 119.688 65.8174 119.688 65.8174C119.688 65.8174 141 43.4132 141 28.2361C141 17.0484 131.471 8 119.688 8Z" fill="#F9813D"/>
<path d="M124.227 18.1126C122.649 18.4988 121.414 19.8559 120.817 21.8634C120.538 22.8005 120.416 23.9634 120.508 24.8102C120.686 26.4835 121.449 27.7955 122.579 28.3849C123.219 28.7191 123.853 28.7755 124.449 28.5565C124.868 28.4029 125.432 28.0597 125.8 27.7345C126.777 26.8742 127.474 25.5487 127.736 24.0538C127.825 23.5412 127.847 23.2815 127.845 22.7102C127.845 21.6173 127.697 20.8201 127.368 20.1133C126.867 19.0385 126.074 18.3339 125.131 18.1239C124.872 18.0675 124.441 18.063 124.227 18.1126Z" fill="white"/>
<path d="M114.189 18.1097C113.314 18.2691 112.489 18.9888 111.998 20.0205C111.729 20.583 111.603 21.1228 111.546 21.9495C111.52 22.3116 111.533 22.8923 111.572 23.2567C111.797 25.3247 112.722 27.0669 114.117 28.0417C114.397 28.2376 114.86 28.4767 115.174 28.586C115.397 28.6634 115.453 28.6726 115.7 28.6839C116.027 28.6976 116.261 28.6657 116.547 28.5701C116.99 28.422 117.353 28.1897 117.693 27.8344C118.368 27.1307 118.787 26.0694 118.885 24.8214C118.924 24.3067 118.881 23.5414 118.774 22.9425C118.346 20.5124 117.008 18.7132 115.235 18.1803C114.881 18.0755 114.519 18.0505 114.189 18.1097Z" fill="white"/>
<path d="M130.568 26.0604C129.097 26.308 127.818 27.3457 127.02 28.9416C126.653 29.6777 126.468 30.2764 126.325 31.2083C126.275 31.5415 126.266 31.6675 126.266 32.0502C126.266 32.5184 126.292 32.7502 126.387 33.1284C126.64 34.1436 127.235 34.9697 127.976 35.3366C128.381 35.5369 128.75 35.6112 129.165 35.5729C130.174 35.4829 131.073 35.0169 131.873 34.1706C132.755 33.2364 133.361 31.9444 133.559 30.587C133.61 30.2494 133.645 29.5831 133.629 29.3108C133.548 27.9107 132.814 26.6794 131.792 26.2292C131.396 26.0559 130.961 25.9951 130.568 26.0604Z" fill="white"/>
<path d="M108.055 26.5997C107.098 26.7663 106.293 27.4604 105.996 28.3782C105.891 28.7025 105.803 29.1659 105.765 29.5883C105.629 31.1203 106.148 32.851 107.125 34.1204C107.855 35.0679 108.796 35.7232 109.849 36.0177C110.736 36.2643 111.532 36.0314 112.207 35.3305C112.81 34.7049 113.111 33.7916 113.111 32.5884C113.111 32.1204 113.089 31.8647 113.01 31.4308C112.741 29.9422 111.928 28.5175 110.813 27.5837C110.3 27.1545 109.61 26.7595 109.174 26.6476C108.831 26.5586 108.398 26.5403 108.055 26.5997Z" fill="white"/>
<path d="M119.356 32.429C118.599 32.513 117.851 32.7131 117.114 33.0337C115.987 33.5265 114.9 34.3463 114.197 35.2372C112.681 37.161 111.629 39.2439 111.2 41.1655C111.174 41.2839 111.129 41.4625 111.1 41.5636C110.955 42.0865 110.978 42.6804 111.168 43.199C111.472 44.034 112.131 44.6817 112.947 44.9528C113.434 45.1142 114.162 45.112 114.974 44.9442C115.502 44.8366 115.898 44.7118 117.02 44.3008C118.582 43.7262 119.014 43.6165 120.065 43.5197C120.535 43.4766 120.619 43.4745 120.943 43.4981C121.772 43.5562 122.427 43.7348 123.684 44.2427C124.797 44.6924 125.419 44.9356 125.576 44.9786C127.142 45.4176 128.697 44.8775 129.229 43.709C129.462 43.1947 129.488 42.3577 129.293 41.5636C129.101 40.7911 128.534 39.5366 127.99 38.6909C126.457 36.3024 125.363 34.9747 124.097 33.9633C122.907 33.0144 121.909 32.5646 120.68 32.429C120.334 32.3903 119.708 32.3903 119.356 32.429Z" fill="white"/>
<path d="M140.313 64.6319C139.601 64.0908 138.715 64.0908 138.003 64.6319C137.088 65.3275 137.088 66.8377 138.003 67.5333C138.715 68.0744 139.601 68.0744 140.313 67.5333C141.229 66.8377 141.229 65.3275 140.313 64.6319Z" fill="#D9D9D9"/>
<path d="M140.148 64.8391C139.538 64.3754 138.779 64.3754 138.168 64.8391C137.383 65.4354 137.383 66.7298 138.168 67.3261C138.779 67.7899 139.538 67.7899 140.148 67.3261C140.933 66.7298 140.933 65.4354 140.148 64.8391Z" fill="#F5F5F5"/>
<path d="M138.474 67.1435V65.0217H139.403C139.629 65.0217 139.793 65.0832 139.896 65.2062C140.001 65.327 140.053 65.4918 140.053 65.7004C140.053 65.8498 140.017 65.9772 139.946 66.0826C139.875 66.188 139.773 66.2616 139.639 66.3033C139.676 66.3319 139.706 66.3627 139.727 66.3956C139.747 66.4285 139.768 66.4725 139.789 66.5274L140.044 67.1435H139.692L139.444 66.5504C139.421 66.4933 139.393 66.4527 139.359 66.4285C139.328 66.4044 139.274 66.3923 139.196 66.3923H138.816V67.1435H138.474ZM138.816 66.1024H139.312C139.436 66.1024 139.533 66.0705 139.604 66.0068C139.675 65.9431 139.711 65.841 139.711 65.7004C139.711 65.4347 139.588 65.3018 139.344 65.3018H138.816V66.1024Z" fill="#D9D9D9"/>
</svg>
